<svg id="Layer_1" data-name="Layer 1"
     xmlns="http://www.w3.org/2000/svg" viewBox="0 0 64 64">
  <title>repeat-on</title>
  <path class="cls-1"
        d="M13.78,64a1.14,1.14,0,0,1-.8-.3L.26,51.3a1.07,1.07,0,0,1-.1-1.4l.1-.1L13,37.5a1.06,1.06,0,0,1,1.2-.2,1.2,1.2,0,0,1,.7,1v7.6H49.72a1.84,1.84,0,0,0,1.8-1.7V35.6a.91.91,0,0,1,.3-.7l8.51-8.3a1.06,1.06,0,0,1,1.2-.2,1.2,1.2,0,0,1,.7,1V46c0,6.7-3.6,10.2-10.51,10.2H14.88v6.7a1,1,0,0,1-.7,1A.6.6,0,0,1,13.78,64Z"
        transform="translate(0.05 0)" />
  <path class="cls-1"
        d="M3,37.8a.6.6,0,0,1-.4-.1,1.09,1.09,0,0,1-.7-1V18C2,11.3,5.57,7.8,12.48,7.8H49.22V1.1a1.2,1.2,0,0,1,.7-1A.94.94,0,0,1,51,.3L63.64,12.7a1.07,1.07,0,0,1,.1,1.4l-.1.1L51,26.5a1.06,1.06,0,0,1-1.2.2,1.09,1.09,0,0,1-.7-1V18.1H14.38a1.69,1.69,0,0,0-1.7,1.7v8.6a1.14,1.14,0,0,1-.3.8L3.87,37.5A3.18,3.18,0,0,1,3,37.8Z"
        transform="translate(0.05 0)" />
</svg>
